<?xml version="1.0" encoding="UTF-8"?>
<svg xmlns="http://www.w3.org/2000/svg" viewBox="0 0 512 512">
  <defs>
    <linearGradient id="g" x1="0" y1="0" x2="1" y2="1">
      <stop offset="0%" stop-color="#7c5cff"/>
      <stop offset="100%" stop-color="#4dabf7"/>
    </linearGradient>
  </defs>
  <rect width="512" height="512" rx="96" fill="url(#g)"/>
  <g transform="translate(72 96)">
    <!-- bowl -->
    <ellipse cx="184" cy="220" rx="160" ry="18" fill="#fff" opacity="0.18"/>
    <path d="M40 140 Q40 250 184 250 Q328 250 328 140 Z" fill="#fff"/>
    <!-- salad -->
    <circle cx="120" cy="130" r="32" fill="#4caf50"/>
    <circle cx="180" cy="115" r="26" fill="#8bc34a"/>
    <circle cx="240" cy="130" r="32" fill="#4caf50"/>
    <circle cx="200" cy="150" r="22" fill="#ff7043"/>
    <circle cx="150" cy="155" r="18" fill="#ffca28"/>
    <!-- steam -->
    <path d="M150 80 Q140 60 160 50 Q170 70 160 90 Z" fill="#fff" opacity="0.5"/>
    <path d="M200 70 Q190 50 210 40 Q220 60 210 80 Z" fill="#fff" opacity="0.5"/>
    <path d="M250 80 Q240 60 260 50 Q270 70 260 90 Z" fill="#fff" opacity="0.5"/>
  </g>
</svg>